PathFileType	4	(X/Y/Z)	E:/New_biomech_experiments/MICROGRAVITY MOCAP/Session 2024-06-22/Neeraj_Tpose_22_06_24.trc	
DataRate	CameraRate	NumFrames	NumMarkers	Units	OrigDataRate	OrigDataStartFrame	OrigNumFrames	
120.00	120.00	14	19	m	120.00	586	1560	
Frame#	Time	MarkerSet_RSHO			MarkerSet_RBAK			MarkerSet_LBHD			MarkerSet_RUPA			MarkerSet_PRSHO			MarkerSet_RWRB			MarkerSet_RELB			MarkerSet_RFRM			MarkerSet_CLAV			MarkerSet_RWRA			MarkerSet_STRN			MarkerSet_ARSHO			MarkerSet_RFHD			MarkerSet_LFHD			MarkerSet_DIA			MarkerSet_C7			MarkerSet_MRELB			MarkerSet_T10			MarkerSet_RBHD			
		X1	Y1	Z1	X2	Y2	Z2	X3	Y3	Z3	X4	Y4	Z4	X5	Y5	Z5	X6	Y6	Z6	X7	Y7	Z7	X8	Y8	Z8	X9	Y9	Z9	X10	Y10	Z10	X11	Y11	Z11	X12	Y12	Z12	X13	Y13	Z13	X14	Y14	Z14	X15	Y15	Z15	X16	Y16	Z16	X17	Y17	Z17	X18	Y18	Z18	X19	Y19	Z19	

586	4.875	-0.04405	1.57779	0.08959	-0.10983	1.37259	0.01768	-0.03349	1.71904	-0.11750	-0.02663	1.54840	0.26945	-0.10284	1.48318	0.08238	-0.06498	1.51430	0.69745	-0.03694	1.54857	0.40483	-0.02857	1.54913	0.54245	0.10650	1.48849	-0.06970	0.03477	1.50948	0.69144	0.13953	1.32543	-0.05177	0.06933	1.51995	0.08743	0.07580	1.81087	0.02308	0.08800	1.82476	-0.07905	0.07720	1.17666	0.11228	-0.09481	1.53193	-0.06878	0.02241	1.44321	0.41175	-0.11024	1.33847	-0.05121	-0.05675	1.72213	-0.01069 
587	4.883	-0.04403	1.57781	0.08958	-0.10981	1.37260	0.01768	-0.03345	1.71903	-0.11751	-0.02660	1.54846	0.26950	-0.10283	1.48320	0.08237	-0.06494	1.51426	0.69746	-0.03691	1.54856	0.40484	-0.02854	1.54911	0.54246	0.10652	1.48849	-0.06969	0.03481	1.50945	0.69143	0.13955	1.32543	-0.05175	0.06935	1.51996	0.08743	0.07583	1.81087	0.02305	0.08804	1.82476	-0.07907	0.07721	1.17667	0.11229	-0.09479	1.53194	-0.06880	0.02245	1.44321	0.41174	-0.11023	1.33849	-0.05122	-0.05673	1.72213	-0.01072 
588	4.892	-0.04401	1.57784	0.08958	-0.10980	1.37262	0.01767	-0.03340	1.71902	-0.11751	-0.02657	1.54849	0.26954	-0.10282	1.48323	0.08237	-0.06490	1.51422	0.69746	-0.03688	1.54855	0.40484	-0.02850	1.54909	0.54246	0.10654	1.48849	-0.06968	0.03485	1.50942	0.69143	0.13958	1.32543	-0.05174	0.06936	1.51997	0.08743	0.07585	1.81088	0.02303	0.08807	1.82476	-0.07909	0.07722	1.17667	0.11230	-0.09477	1.53196	-0.06882	0.02249	1.44321	0.41173	-0.11022	1.33850	-0.05122	-0.05670	1.72213	-0.01075 
589	4.900	-0.04398	1.57786	0.08957	-0.10979	1.37264	0.01767	-0.03335	1.71901	-0.11751	-0.02653	1.54851	0.26958	-0.10280	1.48326	0.08236	-0.06486	1.51417	0.69747	-0.03685	1.54854	0.40484	-0.02846	1.54906	0.54246	0.10656	1.48848	-0.06968	0.03489	1.50939	0.69142	0.13960	1.32542	-0.05173	0.06938	1.51998	0.08743	0.07588	1.81089	0.02301	0.08811	1.82476	-0.07911	0.07722	1.17668	0.11232	-0.09474	1.53197	-0.06884	0.02253	1.44320	0.41171	-0.11022	1.33852	-0.05122	-0.05668	1.72214	-0.01077 
590	4.908	-0.04395	1.57789	0.08957	-0.10978	1.37266	0.01767	-0.03330	1.71901	-0.11753	-0.02650	1.54852	0.26962	-0.10278	1.48329	0.08235	-0.06483	1.51411	0.69747	-0.03681	1.54854	0.40485	-0.02843	1.54904	0.54247	0.10658	1.48848	-0.06967	0.03492	1.50935	0.69142	0.13962	1.32542	-0.05171	0.06940	1.52000	0.08742	0.07590	1.81089	0.02298	0.08814	1.82476	-0.07913	0.07723	1.17668	0.11233	-0.09471	1.53198	-0.06886	0.02257	1.44321	0.41169	-0.11021	1.33854	-0.05122	-0.05665	1.72214	-0.01079 
591	4.917	-0.04392	1.57792	0.08956	-0.10976	1.37269	0.01767	-0.03326	1.71900	-0.11754	-0.02647	1.54854	0.26963	-0.10275	1.48333	0.08234	-0.06480	1.51405	0.69747	-0.03677	1.54854	0.40485	-0.02839	1.54901	0.54247	0.10661	1.48847	-0.06967	0.03496	1.50932	0.69142	0.13965	1.32542	-0.05170	0.06943	1.52001	0.08741	0.07593	1.81090	0.02296	0.08819	1.82476	-0.07914	0.07723	1.17669	0.11235	-0.09468	1.53200	-0.06889	0.02262	1.44321	0.41167	-0.11019	1.33855	-0.05122	-0.05662	1.72214	-0.01081 
592	4.925	-0.04388	1.57795	0.08955	-0.10974	1.37271	0.01767	-0.03322	1.71900	-0.11757	-0.02643	1.54858	0.26962	-0.10273	1.48337	0.08233	-0.06477	1.51400	0.69747	-0.03672	1.54855	0.40484	-0.02835	1.54899	0.54247	0.10664	1.48847	-0.06966	0.03499	1.50927	0.69142	0.13967	1.32541	-0.05168	0.06945	1.52003	0.08740	0.07596	1.81090	0.02294	0.08823	1.82477	-0.07916	0.07724	1.17669	0.11236	-0.09465	1.53201	-0.06891	0.02267	1.44322	0.41165	-0.11018	1.33857	-0.05122	-0.05659	1.72214	-0.01084 
593	4.933	-0.04383	1.57799	0.08954	-0.10972	1.37274	0.01767	-0.03318	1.71899	-0.11760	-0.02640	1.54865	0.26960	-0.10270	1.48341	0.08232	-0.06474	1.51394	0.69747	-0.03667	1.54856	0.40484	-0.02831	1.54898	0.54248	0.10666	1.48846	-0.06966	0.03501	1.50923	0.69141	0.13970	1.32541	-0.05166	0.06949	1.52004	0.08739	0.07599	1.81091	0.02292	0.08828	1.82478	-0.07917	0.07724	1.17669	0.11238	-0.09462	1.53203	-0.06893	0.02272	1.44323	0.41163	-0.11016	1.33859	-0.05122	-0.05655	1.72215	-0.01088 
594	4.942	-0.04379	1.57802	0.08952	-0.10970	1.37277	0.01767	-0.03315	1.71899	-0.11763	-0.02635	1.54871	0.26957	-0.10268	1.48345	0.08231	-0.06472	1.51388	0.69746	-0.03662	1.54858	0.40483	-0.02827	1.54897	0.54248	0.10670	1.48846	-0.06966	0.03504	1.50918	0.69141	0.13973	1.32540	-0.05165	0.06952	1.52006	0.08738	0.07602	1.81091	0.02289	0.08833	1.82480	-0.07918	0.07724	1.17669	0.11240	-0.09459	1.53204	-0.06895	0.02278	1.44325	0.41162	-0.11014	1.33860	-0.05122	-0.05651	1.72216	-0.01094 
595	4.950	-0.04374	1.57806	0.08951	-0.10968	1.37281	0.01767	-0.03312	1.71900	-0.11767	-0.02631	1.54876	0.26955	-0.10265	1.48349	0.08230	-0.06470	1.51384	0.69745	-0.03657	1.54860	0.40483	-0.02823	1.54896	0.54248	0.10673	1.48845	-0.06966	0.03507	1.50914	0.69141	0.13975	1.32540	-0.05164	0.06956	1.52008	0.08737	0.07606	1.81092	0.02286	0.08838	1.82482	-0.07921	0.07724	1.17669	0.11241	-0.09456	1.53206	-0.06897	0.02283	1.44327	0.41160	-0.11011	1.33862	-0.05121	-0.05647	1.72217	-0.01099 
596	4.958	-0.04369	1.57810	0.08950	-0.10966	1.37284	0.01768	-0.03309	1.71900	-0.11771	-0.02626	1.54881	0.26953	-0.10261	1.48354	0.08230	-0.06468	1.51380	0.69744	-0.03652	1.54862	0.40483	-0.02819	1.54896	0.54248	0.10676	1.48844	-0.06966	0.03509	1.50910	0.69141	0.13978	1.32540	-0.05163	0.06960	1.52010	0.08736	0.07610	1.81093	0.02283	0.08843	1.82481	-0.07925	0.07723	1.17670	0.11243	-0.09453	1.53208	-0.06898	0.02289	1.44329	0.41158	-0.11009	1.33865	-0.05121	-0.05642	1.72217	-0.01103 
597	4.967	-0.04363	1.57813	0.08949	-0.10963	1.37287	0.01768	-0.03305	1.71900	-0.11773	-0.02620	1.54885	0.26952	-0.10257	1.48358	0.08229	-0.06465	1.51378	0.69743	-0.03646	1.54865	0.40482	-0.02815	1.54897	0.54248	0.10680	1.48843	-0.06967	0.03512	1.50907	0.69142	0.13981	1.32539	-0.05162	0.06965	1.52012	0.08735	0.07615	1.81093	0.02280	0.08847	1.82479	-0.07930	0.07723	1.17670	0.11244	-0.09449	1.53210	-0.06900	0.02295	1.44331	0.41157	-0.11007	1.33867	-0.05120	-0.05638	1.72218	-0.01105 
598	4.975	-0.04357	1.57817	0.08948	-0.10960	1.37291	0.01769	-0.03300	1.71899	-0.11774	-0.02614	1.54889	0.26951	-0.10253	1.48362	0.08229	-0.06462	1.51377	0.69743	-0.03641	1.54868	0.40482	-0.02811	1.54898	0.54248	0.10684	1.48843	-0.06967	0.03514	1.50905	0.69142	0.13984	1.32539	-0.05162	0.06969	1.52014	0.08733	0.07620	1.81094	0.02276	0.08852	1.82478	-0.07935	0.07722	1.17671	0.11245	-0.09445	1.53211	-0.06901	0.02300	1.44334	0.41157	-0.11005	1.33869	-0.05120	-0.05633	1.72218	-0.01108 
599	4.983	-0.04351	1.57820	0.08947	-0.10957	1.37294	0.01770	-0.03294	1.71899	-0.11775	-0.02608	1.54892	0.26951	-0.10249	1.48366	0.08228	-0.06460	1.51379	0.69742	-0.03636	1.54872	0.40482	-0.02807	1.54900	0.54248	0.10688	1.48842	-0.06967	0.03517	1.50905	0.69142	0.13987	1.32538	-0.05162	0.06974	1.52015	0.08732	0.07626	1.81095	0.02272	0.08857	1.82478	-0.07939	0.07722	1.17671	0.11246	-0.09441	1.53213	-0.06901	0.02306	1.44336	0.41156	-0.11003	1.33871	-0.05120	-0.05627	1.72219	-0.01112 
